<svg xmlns="http://www.w3.org/2000/svg" version="1.1" xmlns:xlink="http://www.w3.org/1999/xlink" xmlns:svgjs="http://svgjs.dev/svgjs" width="1500" height="1687" viewBox="0 0 1500 1687"><g transform="matrix(1,0,0,1,0.00002668866648036783,0)"><svg viewBox="0 0 320 360" data-background-color="#561f01" preserveAspectRatio="xMidYMid meet" height="1687" width="1500" xmlns="http://www.w3.org/2000/svg" xmlns:xlink="http://www.w3.org/1999/xlink"><g id="tight-bounds" transform="matrix(1,0,0,1,0.000005693582238563977,0)"><svg viewBox="0 0 320 360" height="360" width="320"><g><svg></svg></g><g><svg viewBox="0 0 320 360" height="360" width="320"><g><path transform="translate(-8.74414,11.24127) scale(3.37517,3.37517)" d="M89.9 29.89c-2.6-3.17-7.52-4.8-12.74-6.52-2.24-0.74-4.55-1.51-6.81-2.44-2.28-0.94-4.52-2.15-6.7-3.31-4.43-2.38-9.01-4.84-13.66-4.84-4.64 0-9.22 2.46-13.65 4.84-2.18 1.17-4.43 2.38-6.71 3.32-2.25 0.93-4.57 1.69-6.81 2.44-5.22 1.73-10.14 3.36-12.74 6.52-3.47 4.23-3.39 10.5-3.31 17.13 0.01 1 0.02 1.99 0.02 2.97 0 0.98-0.01 1.97-0.03 2.97-0.08 6.64-0.16 12.9 3.31 17.14 2.6 3.16 7.52 4.79 12.73 6.52 2.24 0.74 4.55 1.51 6.82 2.44 2.28 0.94 4.52 2.14 6.69 3.31 4.44 2.39 9.02 4.85 13.66 4.85 4.65 0 9.23-2.46 13.66-4.84 2.18-1.17 4.42-2.38 6.7-3.31 2.25-0.93 4.55-1.69 6.78-2.43 5.25-1.74 10.17-3.37 12.77-6.53 3.47-4.23 3.39-10.5 3.31-17.13-0.01-1.01-0.03-2-0.03-2.98 0-0.98 0.01-1.97 0.03-2.96 0.11-6.66 0.19-12.93-3.29-17.16zM93.12 27.25c-4.66-5.68-13.57-7.03-21.18-10.17-6.81-2.8-13.74-8.47-21.94-8.47-8.2 0-15.13 5.67-21.94 8.47-7.62 3.14-16.52 4.49-21.18 10.17-5.06 6.16-4.24 14.85-4.24 22.75 0 7.89-0.82 16.59 4.23 22.75 4.66 5.68 13.57 7.03 21.18 10.17 6.81 2.81 13.74 8.47 21.94 8.47 8.2 0 15.13-5.66 21.94-8.47 7.62-3.14 16.52-4.49 21.18-10.17 5.05-6.16 4.23-14.85 4.23-22.75 0.02-7.9 0.84-16.59-4.22-22.75zM94.4 52.94c0.09 6.88 0.17 13.35-3.58 17.92-2.82 3.43-7.9 5.12-13.28 6.9-2.24 0.74-4.53 1.5-6.73 2.41-2.22 0.91-4.43 2.1-6.57 3.25-4.58 2.46-9.29 4.99-14.24 4.99-4.95 0-9.66-2.53-14.22-4.98-2.15-1.16-4.37-2.35-6.59-3.26-2.23-0.92-4.52-1.68-6.74-2.41-5.39-1.78-10.47-3.47-13.28-6.9-3.74-4.56-3.66-11.04-3.58-17.9 0.01-1 0.03-1.98 0.03-2.96 0-0.98-0.01-1.96-0.02-2.96-0.09-6.86-0.17-13.34 3.58-17.9 2.82-3.43 7.9-5.11 13.28-6.9 2.23-0.74 4.52-1.5 6.74-2.41 2.22-0.92 4.44-2.11 6.59-3.26 4.56-2.45 9.28-4.99 14.22-4.99 4.94 0 9.66 2.53 14.22 4.98 2.15 1.16 4.37 2.35 6.59 3.26 2.22 0.92 4.52 1.67 6.73 2.41 5.38 1.78 10.47 3.47 13.28 6.9 3.75 4.57 3.67 11.04 3.58 17.9-0.01 1.01-0.03 1.99-0.03 2.96 0 0.98 0.01 1.96 0.02 2.95z" fill="#ebe6c8" fill-rule="nonzero" stroke="none" stroke-width="1" stroke-linecap="butt" stroke-linejoin="miter" stroke-miterlimit="10" stroke-dasharray="" stroke-dashoffset="0" font-family="none" font-weight="none" font-size="none" text-anchor="none" style="mix-blend-mode: normal" data-fill-palette-color="tertiary"></path></g><g transform="matrix(1,0,0,1,90.11565531577568,108)"><svg viewBox="0 0 139.76868936844863 144" height="144" width="139.76868936844863"><g><svg viewBox="0 0 139.76868936844863 144" height="144" width="139.76868936844863"><g><svg viewBox="0 0 192 197.81254388896957" height="144" width="139.76868936844863"><g transform="matrix(1,0,0,1,0,119.36611206606057)"><svg viewBox="0 0 192 78.44643182290902" height="78.44643182290902" width="192"><g id="textblocktransform"><svg viewBox="0 0 192 78.44643182290902" height="78.44643182290902" width="192" id="textblock"><g><svg viewBox="0 0 192 46.396682791983416" height="46.396682791983416" width="192"><g transform="matrix(1,0,0,1,0,0)"><svg width="192" viewBox="1 -34.15 217.03 52.45" height="46.396682791983416" data-palette-color="#561f01"><path d="M22.1-19.9L22.1-19.9Q22.05-18.95 21.78-17.93 21.5-16.9 21.1-16.07 20.7-15.25 20.25-14.7 19.8-14.15 19.4-14.15L19.4-14.15Q18.85-14.2 18.75-14.9L18.75-14.9Q18.75-15.05 18.88-15.38 19-15.7 19.15-16.1 19.3-16.5 19.43-16.9 19.55-17.3 19.55-17.6L19.55-17.6Q19.55-18.3 19.23-18.78 18.9-19.25 18.35-19.25L18.35-19.25Q16.35-19.25 15.3-16.75 14.25-14.25 14.25-9.4L14.25-9.4Q14.25-8.9 14.3-8.8L14.3-8.8Q15.35-8.85 16.18-8.88 17-8.9 17.8-8.9L17.8-8.9Q17.85-8.8 17.85-8.5L17.85-8.5Q17.85-8.05 17.65-7.85L17.65-7.85Q16.5-7.6 15.83-7.43 15.15-7.25 14.8-7.1 14.45-6.95 14.38-6.78 14.3-6.6 14.3-6.3L14.3-6.3Q14.3-5.9 14.33-5.5 14.35-5.1 14.35-4.5L14.35-4.5Q14.35-0.3 12.08 2.25 9.8 4.8 5.75 5.2L5.75 5.2Q5.05 5.15 4.3 4.8 3.55 4.45 2.88 3.9 2.2 3.35 1.7 2.68 1.2 2 1 1.3L1 1.3Q1-0.6 1.8-2.33 2.6-4.05 3.98-5.38 5.35-6.7 7.23-7.53 9.1-8.35 11.3-8.5L11.3-8.5Q11.3-9.75 11.05-10.95 10.8-12.15 10.53-13.28 10.25-14.4 10-15.48 9.75-16.55 9.75-17.6L9.75-17.6Q9.75-18.95 10.3-20.28 10.85-21.6 11.75-22.73 12.65-23.85 13.85-24.65 15.05-25.45 16.35-25.75L16.35-25.75Q16.9-25.6 17.82-24.88 18.75-24.15 19.65-23.25 20.55-22.35 21.25-21.43 21.95-20.5 22.1-19.9ZM5.6 2.9L5.6 2.9Q6.8 2.4 7.88 1.45 8.95 0.5 9.75-0.7 10.55-1.9 11.03-3.25 11.5-4.6 11.5-5.9L11.5-5.9Q10.5-5.75 9.3-4.98 8.1-4.2 7.05-3.13 6-2.05 5.3-0.9 4.6 0.25 4.6 1.1L4.6 1.1Q4.6 2.2 5.6 2.9ZM35.75-1.1L35.75-1.1Q34.8-1.9 34.47-3.1 34.15-4.3 34.15-5.15L34.15-5.15Q34.15-6.2 34.4-6.95L34.4-6.95Q34.2-6.95 33.5-6.15 32.8-5.35 31.97-4.25 31.15-3.15 30.35-2.1 29.55-1.05 29.15-0.55L29.15-0.55Q28.5 0.15 27.92 0.55 27.35 0.95 27 1L27 1Q26.2 0.95 25.32 0.68 24.45 0.4 23.67-0.1 22.9-0.6 22.32-1.3 21.75-2 21.55-2.9L21.55-2.9Q21.55-4.3 21.62-5.2 21.7-6.1 21.95-7.15L21.95-7.15Q22.4-9.05 23.27-11.45 24.15-13.85 25.3-16.18 26.45-18.5 27.87-20.53 29.3-22.55 30.9-23.7L30.9-23.7Q31.35-23.7 31.95-23.63 32.55-23.55 33.17-23.35 33.8-23.15 34.37-22.88 34.95-22.6 35.35-22.15L35.35-22.15Q34.9-21.65 33.07-18.8 31.25-15.95 29-10.6L29-10.6Q28.75-10.05 28.4-9 28.05-7.95 27.7-6.8 27.35-5.65 27.12-4.55 26.9-3.45 26.9-2.8L26.9-2.8Q26.9-2.4 27.02-2.2 27.15-2 27.25-1.9L27.25-1.9Q28-2.2 29.15-3.55 30.3-4.9 32.35-7.7L32.35-7.7Q32.85-8.4 33.52-9.3 34.2-10.2 34.9-11.23 35.6-12.25 36.22-13.35 36.85-14.45 37.25-15.55L37.25-15.55Q37.45-16.15 37.77-16.98 38.1-17.8 38.57-18.7 39.05-19.6 39.67-20.53 40.3-21.45 41.15-22.25L41.15-22.25Q41.8-22.25 42.55-22.1 43.3-21.95 43.97-21.73 44.65-21.5 45.15-21.23 45.65-20.95 45.9-20.65L45.9-20.65Q45-18.45 43.9-16.3 42.8-14.15 41.85-12.08 40.9-10 40.25-7.95 39.6-5.9 39.6-3.95L39.6-3.95Q39.6-2.9 39.77-2.13 39.95-1.35 40.15-0.83 40.35-0.3 40.52 0.05 40.7 0.4 40.7 0.65L40.7 0.65Q40.7 0.7 40.6 0.8L40.6 0.8Q40.55 0.85 40.5 0.85L40.5 0.85Q40.15 0.85 39.6 0.7 39.05 0.55 38.37 0.28 37.7 0 37.02-0.35 36.35-0.7 35.75-1.1ZM75.55-15.35L75.55-15.35Q74.75-15.3 73.59-14.33 72.45-13.35 71.12-11.83 69.8-10.3 68.37-8.45 66.95-6.6 65.62-4.78 64.3-2.95 63.15-1.35 62 0.25 61.2 1.2L61.2 1.2Q60.09 0.75 59.3-0.13 58.5-1 58.15-2.3L58.15-2.3Q58.4-3.85 58.84-5.53 59.3-7.2 60.02-9 60.75-10.8 61.82-12.78 62.9-14.75 64.45-16.95L64.45-16.95Q63.7-16.9 62.4-15.88 61.09-14.85 59.59-13.23 58.09-11.6 56.5-9.58 54.9-7.55 53.5-5.6L53.5-5.6Q51.65-3 50.42-1.05 49.2 0.9 48.65 1.25L48.65 1.25Q47.34 0.3 46.84-0.8 46.34-1.9 46.09-3.25L46.09-3.25Q46.15-4.45 46.47-6.25 46.8-8.05 47.4-9.95L47.4-9.95Q48.55-13.6 50.37-17.2 52.2-20.8 53.9-23.8L53.9-23.8Q55.3-23.5 56.42-22.85 57.55-22.2 58.8-20.95L58.8-20.95Q58.3-19.4 57.25-17.68 56.2-15.95 55.05-14.05 53.9-12.15 52.95-10.15 52-8.15 51.7-6.1L51.7-6.1Q53.09-8.1 55.02-10.7 56.95-13.3 58.97-15.6 61-17.9 63-19.5 65-21.1 66.59-21.1L66.59-21.1Q67.2-21.1 67.9-20.9 68.59-20.7 69.2-20.4 69.8-20.1 70.2-19.83 70.59-19.55 70.65-19.4L70.65-19.4Q70.4-18.4 69.47-16.68 68.55-14.95 67.5-13.05 66.45-11.15 65.55-9.38 64.65-7.6 64.5-6.55L64.5-6.55Q66.95-9.9 69.09-12.63 71.25-15.35 73.15-17.3 75.05-19.25 76.67-20.3 78.3-21.35 79.75-21.35L79.75-21.35Q80.75-21.35 81.62-20.83 82.5-20.3 82.84-19.3L82.84-19.3Q82.4-17.8 81.37-15.7 80.34-13.6 79.3-11.28 78.25-8.95 77.42-6.7 76.59-4.45 76.59-2.65L76.59-2.65Q76.59-1.6 76.9-1.28 77.19-0.95 77.75-0.95L77.75-0.95Q78.34-0.95 78.87-1.18 79.4-1.4 79.65-1.4L79.65-1.4Q79.94-1.2 80-0.9 80.05-0.6 80.05-0.35L80.05-0.35Q79.05 0.45 78 0.98 76.94 1.5 75.65 1.5L75.65 1.5Q74.44 1.5 73.67 1.1 72.9 0.7 72.4 0 71.9-0.7 71.7-1.6 71.5-2.5 71.5-3.55L71.5-3.55Q71.5-5.25 71.95-6.93 72.4-8.6 73.02-10.13 73.65-11.65 74.34-12.98 75.05-14.3 75.55-15.35ZM102.14-20.2L102.14-20.2Q102.64-20.2 103.32-20.03 103.99-19.85 104.54-19.58 105.09-19.3 105.47-19 105.84-18.7 105.84-18.45L105.84-18.45Q104.84-16.35 103.99-14.23 103.14-12.1 102.54-10.15 101.94-8.2 101.62-6.5 101.29-4.8 101.29-3.55L101.29-3.55Q101.29-2.15 101.59-1.23 101.89-0.3 102.59 0.1L102.59 0.1Q101.99 0.5 101.04 0.75 100.09 1 99.34 1L99.34 1Q96.64 1 96.64-2.7L96.64-2.7Q96.64-5.55 98.54-10.5L98.54-10.5Q97.54-8.2 96.24-6.18 94.94-4.15 93.59-2.6 92.24-1.05 90.87-0.08 89.49 0.9 88.34 1.1L88.34 1.1Q86.49 1 85.34-0.68 84.19-2.35 84.19-4.95L84.19-4.95Q84.19-7.75 85.39-10.85 86.59-13.95 88.47-16.6 90.34-19.25 92.54-21.03 94.74-22.8 96.79-22.9L96.79-22.9Q97.29-22.75 97.92-22.3 98.54-21.85 99.12-21.25 99.69-20.65 100.09-20.03 100.49-19.4 100.54-18.95L100.54-18.95Q98.54-18.65 96.42-17 94.29-15.35 92.57-13.03 90.84-10.7 89.74-8.05 88.64-5.4 88.64-3.1L88.64-3.1Q88.64-2.15 89.34-1.9L89.34-1.9Q90.79-2.2 92.69-4.38 94.59-6.55 97.29-11.1L97.29-11.1Q97.79-12 98.42-13.1 99.04-14.2 99.69-15.4 100.34-16.6 100.97-17.82 101.59-19.05 102.14-20.2ZM113.34-19.15L110.49-19.15Q110.24-19.45 110.04-20.43 109.84-21.4 109.84-22.1L109.84-22.1Q111.14-22 112.34-21.93 113.54-21.85 114.54-21.8L114.54-21.8Q115.29-23.3 116.17-24.78 117.04-26.25 117.87-27.48 118.69-28.7 119.42-29.55 120.14-30.4 120.54-30.65L120.54-30.65Q121.04-30.65 121.82-30.48 122.59-30.3 123.39-30.03 124.19-29.75 124.84-29.45 125.49-29.15 125.74-28.85L125.74-28.85Q124.24-26.95 123.17-25.33 122.09-23.7 120.84-21.6L120.84-21.6Q121.84-21.6 122.87-21.65 123.89-21.7 124.94-21.8L124.94-21.8Q125.19-21.55 125.34-21.18 125.49-20.8 125.49-20.4L125.49-20.4Q123.04-19.5 119.54-19.4L119.54-19.4Q118.29-17 117.32-14.63 116.34-12.25 115.67-10.05 114.99-7.85 114.62-5.9 114.24-3.95 114.24-2.4L114.24-2.4Q114.24-0.2 115.89 0.05L115.89 0.05Q117.39-0.15 118.74-0.7 120.09-1.25 121.14-2.1L121.14-2.1Q121.44-1.65 121.49-1.35L121.49-1.35Q121.19-0.9 120.47-0.3 119.74 0.3 118.89 0.88 118.04 1.45 117.24 1.85 116.44 2.25 116.04 2.3L116.04 2.3Q114.79 2.25 113.54 1.75 112.29 1.25 111.27 0.5 110.24-0.25 109.59-1.18 108.94-2.1 108.94-3L108.94-3Q108.94-4.2 109.27-6.03 109.59-7.85 110.19-10 110.79-12.15 111.59-14.5 112.39-16.85 113.34-19.15L113.34-19.15ZM142.39-19.9L142.39-19.9Q142.34-18.95 142.06-17.93 141.79-16.9 141.39-16.07 140.99-15.25 140.54-14.7 140.09-14.15 139.69-14.15L139.69-14.15Q139.14-14.2 139.04-14.9L139.04-14.9Q139.04-15.05 139.16-15.38 139.29-15.7 139.44-16.1 139.59-16.5 139.71-16.9 139.84-17.3 139.84-17.6L139.84-17.6Q139.84-18.3 139.51-18.78 139.19-19.25 138.64-19.25L138.64-19.25Q136.64-19.25 135.59-16.75 134.54-14.25 134.54-9.4L134.54-9.4Q134.54-8.9 134.59-8.8L134.59-8.8Q135.64-8.85 136.46-8.88 137.29-8.9 138.09-8.9L138.09-8.9Q138.14-8.8 138.14-8.5L138.14-8.5Q138.14-8.05 137.94-7.85L137.94-7.85Q136.79-7.6 136.11-7.43 135.44-7.25 135.09-7.1 134.74-6.95 134.66-6.78 134.59-6.6 134.59-6.3L134.59-6.3Q134.59-5.9 134.61-5.5 134.64-5.1 134.64-4.5L134.64-4.5Q134.64-0.3 132.36 2.25 130.09 4.8 126.04 5.2L126.04 5.2Q125.34 5.15 124.59 4.8 123.84 4.45 123.16 3.9 122.49 3.35 121.99 2.68 121.49 2 121.29 1.3L121.29 1.3Q121.29-0.6 122.09-2.33 122.89-4.05 124.26-5.38 125.64-6.7 127.51-7.53 129.39-8.35 131.59-8.5L131.59-8.5Q131.59-9.75 131.34-10.95 131.09-12.15 130.81-13.28 130.54-14.4 130.29-15.48 130.04-16.55 130.04-17.6L130.04-17.6Q130.04-18.95 130.59-20.28 131.14-21.6 132.04-22.73 132.94-23.85 134.14-24.65 135.34-25.45 136.64-25.75L136.64-25.75Q137.19-25.6 138.11-24.88 139.04-24.15 139.94-23.25 140.84-22.35 141.54-21.43 142.24-20.5 142.39-19.9ZM125.89 2.9L125.89 2.9Q127.09 2.4 128.16 1.45 129.24 0.5 130.04-0.7 130.84-1.9 131.31-3.25 131.79-4.6 131.79-5.9L131.79-5.9Q130.79-5.75 129.59-4.98 128.39-4.2 127.34-3.13 126.29-2.05 125.59-0.9 124.89 0.25 124.89 1.1L124.89 1.1Q124.89 2.2 125.89 2.9ZM138.79 16.55L138.79 16.55Q138.09 16.35 137.99 15.05L137.99 15.05Q137.79 14.4 137.71 13.5 137.64 12.6 137.64 11.45L137.64 11.45Q137.64 10.4 137.99 8.58 138.34 6.75 138.96 4.45 139.59 2.15 140.49-0.53 141.39-3.2 142.49-5.95L142.49-5.95Q143.84-9.4 144.84-11.93 145.84-14.45 146.51-16.3 147.19-18.15 147.61-19.35 148.04-20.55 148.29-21.4L148.29-21.4Q148.49-22 148.89-22.85 149.29-23.7 149.81-24.58 150.34-25.45 150.89-26.23 151.44-27 151.89-27.4L151.89-27.4Q153.64-27.15 155.19-26.5 156.74-25.85 157.09-25.25L157.09-25.25Q156.39-24.6 155.49-23.23 154.59-21.85 153.74-20.23 152.89-18.6 152.19-16.9 151.49-15.2 151.14-13.9L151.14-13.9Q151.64-14.75 152.44-15.75 153.24-16.75 154.89-18.5L154.89-18.5Q156.74-20.4 158.36-21.43 159.99-22.45 161.19-22.45L161.19-22.45Q163.09-22.45 164.31-21.4 165.54-20.35 165.54-18.7L165.54-18.7Q165.54-15.1 164.34-11.58 163.14-8.05 160.89-5.2L160.89-5.2Q160.04-4.1 158.89-3.1 157.74-2.1 156.49-1.33 155.24-0.55 154.04-0.1 152.84 0.35 151.89 0.35L151.89 0.35Q150.99 0.35 150.31-0.03 149.64-0.4 149.39-0.95L149.39-0.95Q151.34-2.1 153.19-4.15 155.04-6.2 156.61-8.88 158.19-11.55 159.36-14.65 160.54-17.75 161.14-20.95L161.14-20.95Q159.24-19.95 157.71-18.78 156.19-17.6 154.69-15.7L154.69-15.7Q152.89-13.5 151.84-12.15 150.79-10.8 150.11-9.85 149.44-8.9 149.01-8.08 148.59-7.25 148.09-6.05L148.09-6.05Q147.39-4.45 146.46-1.83 145.54 0.8 144.56 4.05 143.59 7.3 142.61 10.98 141.64 14.65 140.74 18.3L140.74 18.3Q140.19 18.2 139.79 17.5L139.79 17.5Q139.39 17.05 139.21 16.85 139.04 16.65 138.79 16.55ZM167.38-3.35L167.38-3.35Q167.38-3.8 167.46-4.48 167.53-5.15 167.73-6.28 167.93-7.4 168.26-9 168.58-10.6 169.08-12.85L169.08-12.85Q169.18-13.35 169.53-14.45 169.88-15.55 170.46-16.78 171.03-18 171.86-19.15 172.68-20.3 173.83-20.85L173.83-20.85Q174.68-20.65 176.08-19.83 177.48-19 178.48-17.55L178.48-17.55Q177.33-16.25 176.56-14.95 175.78-13.65 175.16-12.25 174.53-10.85 174.01-9.35 173.48-7.85 172.83-6.2L172.83-6.2Q172.28-4.8 171.83-3.33 171.38-1.85 171.33-0.75L171.33-0.75Q171.33 0.15 171.31 0.53 171.28 0.9 171.03 0.9L171.03 0.9Q170.83 0.9 170.23 0.65 169.63 0.4 169.01-0.13 168.38-0.65 167.88-1.45 167.38-2.25 167.38-3.35ZM176.93-25.05L176.93-25.05Q176.93-25.35 177.08-25.95L177.08-25.95Q176.83-26.2 176.66-26.7 176.48-27.2 176.48-27.6L176.48-27.6Q176.48-28.05 176.61-28.83 176.73-29.6 176.93-30.5 177.13-31.4 177.43-32.38 177.73-33.35 178.03-34.15L178.03-34.15Q178.63-34.15 179.51-33.83 180.38-33.5 181.28-32.98 182.18-32.45 182.93-31.83 183.68-31.2 184.08-30.65L184.08-30.65Q183.53-30.1 182.63-29.13 181.73-28.15 180.88-27.08 180.03-26 179.33-25.05 178.63-24.1 178.43-23.7L178.43-23.7Q177.83-23.8 177.38-24.23 176.93-24.65 176.93-25.05ZM179.43-8.8L179.43-8.8Q179.43-11.65 180.61-14.33 181.78-17 183.71-19.07 185.63-21.15 188.11-22.43 190.58-23.7 193.23-23.7L193.23-23.7Q195.83-23.7 197.23-22.4 198.63-21.1 198.63-18.7L198.63-18.7Q198.63-17.55 198.31-16.48 197.98-15.4 197.46-14.55 196.93-13.7 196.23-13.18 195.53-12.65 194.83-12.65L194.83-12.65Q194.23-12.65 193.61-13.03 192.98-13.4 192.58-14L192.58-14Q195.93-17.05 195.93-19.55L195.93-19.55Q195.93-21 194.78-21L194.78-21Q193.78-21 192.28-20.05 190.78-19.1 189.38-17.55L189.38-17.55Q187.23-15.15 186.11-12.23 184.98-9.3 184.98-6.1L184.98-6.1Q184.98-2.05 186.78-1.25L186.78-1.25Q187.53-1.35 188.53-1.7 189.53-2.05 190.68-2.63 191.83-3.2 193.06-3.95 194.28-4.7 195.43-5.55L195.43-5.55Q195.63-5.4 195.78-5.1 195.93-4.8 195.93-4.55L195.93-4.55Q195.08-3.5 193.98-2.5 192.88-1.5 191.68-0.68 190.48 0.15 189.36 0.73 188.23 1.3 187.38 1.45L187.38 1.45Q185.73 1.3 184.28 0.43 182.83-0.45 181.76-1.85 180.68-3.25 180.06-5.05 179.43-6.85 179.43-8.8ZM218.03-20.7L218.03-20.7Q217.83-17.6 216.93-15.38 216.03-13.15 214.35-11.48 212.68-9.8 210.28-8.45 207.88-7.1 204.68-5.85L204.68-5.85Q204.68-5.55 204.65-5.23 204.63-4.9 204.63-4.55L204.63-4.55Q204.63-3.9 204.73-3.2 204.83-2.5 205.08-1.9 205.33-1.3 205.78-0.93 206.23-0.55 206.93-0.55L206.93-0.55Q208.28-0.55 209.58-1.15 210.88-1.75 212.05-2.63 213.23-3.5 214.25-4.53 215.28-5.55 216.08-6.4L216.08-6.4Q216.58-5.95 216.93-5.55L216.93-5.55Q214.68-2.55 212-0.58 209.33 1.4 206.93 1.95L206.93 1.95Q203.48 1.55 201.55-0.58 199.63-2.7 199.63-5.7L199.63-5.7Q199.63-7.75 200.2-9.88 200.78-12 201.8-13.98 202.83-15.95 204.2-17.7 205.58-19.45 207.15-20.75 208.73-22.05 210.4-22.8 212.08-23.55 213.73-23.55L213.73-23.55Q216.03-23.25 218.03-20.7ZM214.58-19.05L214.58-19.05Q213.23-18.85 211.78-17.95 210.33-17.05 209.05-15.55 207.78-14.05 206.73-12.05 205.68-10.05 205.08-7.75L205.08-7.75Q209.08-9.75 211.73-12.68 214.38-15.6 214.58-19.05Z" opacity="1" transform="matrix(1,0,0,1,0,0)" fill="#561f01" class="wordmark-text-0" data-fill-palette-color="quaternary" id="text-0"></path></svg></g></svg></g><g transform="matrix(1,0,0,1,0,57.34982607878369)"><svg viewBox="0 0 192 21.096605744125327" height="21.096605744125327" width="192"><g transform="matrix(1,0,0,1,0,0)"><svg width="192" viewBox="2.85 -39.65 459.53999999999996 50.5" height="21.096605744125327" data-palette-color="#561f01"><path d="M15.2-27.15Q18.05-27.15 19.7-25.1 21.35-23.05 21.35-19.6L21.35-19.6 21.35 0 15.2 0 15.2-18.9Q15.2-20.8 14.68-21.63 14.15-22.45 13.15-22.45L13.15-22.45Q11.05-22.45 9-18.5L9-18.5 9 0 2.85 0 2.85-37 9-37.65 9-23.3Q10.25-25.25 11.73-26.2 13.2-27.15 15.2-27.15L15.2-27.15ZM45.75-13.85Q45.75-13.4 45.6-11.3L45.6-11.3 31.95-11.3Q32.15-7.2 33.37-5.58 34.6-3.95 36.85-3.95L36.85-3.95Q38.4-3.95 39.65-4.48 40.9-5 42.35-6.15L42.35-6.15 44.9-2.65Q41.4 0.75 36.5 0.75L36.5 0.75Q31.3 0.75 28.52-2.85 25.75-6.45 25.75-13L25.75-13Q25.75-19.55 28.4-23.35 31.05-27.15 35.9-27.15L35.9-27.15Q40.55-27.15 43.15-23.78 45.75-20.4 45.75-13.85L45.75-13.85ZM39.75-15.3L39.75-15.65Q39.75-19.4 38.85-21.13 37.95-22.85 35.95-22.85L35.95-22.85Q34.1-22.85 33.12-21.18 32.15-19.5 31.95-15.3L31.95-15.3 39.75-15.3ZM66.95-6.4Q66.95-5.1 67.3-4.48 67.65-3.85 68.45-3.45L68.45-3.45 67.2 0.65Q65.15 0.4 63.92-0.45 62.7-1.3 62.1-3.05L62.1-3.05Q59.8 0.75 55.65 0.75L55.65 0.75Q52.35 0.75 50.4-1.48 48.45-3.7 48.45-7.4L48.45-7.4Q48.45-11.7 51.12-13.95 53.8-16.2 58.9-16.2L58.9-16.2 60.95-16.2 60.95-18.05Q60.95-20.55 60.07-21.58 59.2-22.6 57.25-22.6L57.25-22.6Q54.9-22.6 51.4-21.3L51.4-21.3 50-25.3Q52-26.2 54.15-26.68 56.3-27.15 58.25-27.15L58.25-27.15Q66.95-27.15 66.95-18.35L66.95-18.35 66.95-6.4ZM57.3-3.7Q59.7-3.7 60.95-7L60.95-7 60.95-12.55 59.5-12.55Q56.95-12.55 55.77-11.4 54.6-10.25 54.6-7.85L54.6-7.85Q54.6-5.8 55.3-4.75 56-3.7 57.3-3.7L57.3-3.7ZM78.34 0.75Q75.64 0.75 74.07-0.93 72.49-2.6 72.49-5.4L72.49-5.4 72.49-37.05 78.64-37.7 78.64-5.65Q78.64-5 78.94-4.6 79.24-4.2 79.84-4.2L79.84-4.2Q80.19-4.2 80.52-4.3 80.84-4.4 80.94-4.4L80.94-4.4 82.14-0.2Q80.44 0.75 78.34 0.75L78.34 0.75ZM96.34-5L98.49-1.2Q96.04 0.75 92.74 0.75L92.74 0.75Q89.29 0.75 87.49-1.23 85.69-3.2 85.69-6.6L85.69-6.6 85.69-22 82.59-22 82.59-26.45 85.69-26.45 85.69-32.3 91.84-33.05 91.84-26.45 96.84-26.45 96.24-22 91.84-22 91.84-6.6Q91.84-4.2 93.89-4.2L93.89-4.2Q94.54-4.2 95.04-4.38 95.54-4.55 96.34-5L96.34-5ZM113.39-27.15Q116.24-27.15 117.89-25.1 119.54-23.05 119.54-19.6L119.54-19.6 119.54 0 113.39 0 113.39-18.9Q113.39-20.8 112.86-21.63 112.34-22.45 111.34-22.45L111.34-22.45Q109.24-22.45 107.19-18.5L107.19-18.5 107.19 0 101.04 0 101.04-37 107.19-37.65 107.19-23.3Q108.44-25.25 109.91-26.2 111.39-27.15 113.39-27.15L113.39-27.15ZM143.74-26.45L136.74 0.1Q135.44 4.9 132.54 7.65 129.64 10.4 124.79 10.85L124.79 10.85 124.09 6.5Q127.24 5.85 128.81 4.42 130.39 3 131.29 0L131.29 0 128.99 0 122.29-26.45 128.54-26.45 132.94-4.1 137.64-26.45 143.74-26.45ZM166.63-35.25Q170.68-35.25 173.01-33.08 175.33-30.9 175.33-27.35L175.33-27.35Q175.33-24.5 173.88-22.35 172.43-20.2 169.63-18.1L169.63-18.1 175.73-10.7Q177.08-14.65 177.78-18.35L177.78-18.35 182.73-17.1Q181.23-11.45 179.03-7.45L179.03-7.45 183.98-2.15 179.03 0.75 175.48-3.65Q173.53-1.4 171.28-0.33 169.03 0.75 166.28 0.75L166.28 0.75Q163.43 0.75 161.18-0.45 158.93-1.65 157.68-3.83 156.43-6 156.43-8.8L156.43-8.8Q156.43-11.85 157.81-14.08 159.18-16.3 162.18-18.6L162.18-18.6Q159.88-21 158.98-22.88 158.08-24.75 158.08-27.25L158.08-27.25Q158.08-30.75 160.28-33 162.48-35.25 166.63-35.25L166.63-35.25ZM166.73-31.15Q163.93-31.15 163.93-27.25L163.93-27.25Q163.93-25.5 164.48-24.23 165.03-22.95 166.43-21.15L166.43-21.15Q168.08-22.7 168.78-24 169.48-25.3 169.48-27.2L169.48-27.2Q169.48-31.15 166.73-31.15L166.73-31.15ZM165.53-15.25Q164.08-13.95 163.46-12.48 162.83-11 162.83-9L162.83-9Q162.83-6.5 164.03-5.15 165.23-3.8 167.28-3.8L167.28-3.8Q168.83-3.8 170.08-4.53 171.33-5.25 172.48-6.7L172.48-6.7 165.53-15.25ZM210.48-37.7L216.63-37.05 216.63 0 211.18 0 210.88-3.05Q208.53 0.75 204.83 0.75L204.83 0.75Q200.73 0.75 198.55-2.93 196.38-6.6 196.38-13.2L196.38-13.2Q196.38-17.4 197.5-20.58 198.63-23.75 200.63-25.45 202.63-27.15 205.23-27.15L205.23-27.15Q208.43-27.15 210.48-24.5L210.48-24.5 210.48-37.7ZM206.58-3.9Q207.73-3.9 208.65-4.7 209.58-5.5 210.48-7L210.48-7 210.48-19.85Q208.88-22.55 206.83-22.55L206.83-22.55Q202.78-22.55 202.78-13.25L202.78-13.25Q202.78-8.2 203.78-6.05 204.78-3.9 206.58-3.9L206.58-3.9ZM241.17-13.85Q241.17-13.4 241.02-11.3L241.02-11.3 227.37-11.3Q227.57-7.2 228.8-5.58 230.02-3.95 232.27-3.95L232.27-3.95Q233.82-3.95 235.07-4.48 236.32-5 237.77-6.15L237.77-6.15 240.32-2.65Q236.82 0.75 231.92 0.75L231.92 0.75Q226.72 0.75 223.95-2.85 221.17-6.45 221.17-13L221.17-13Q221.17-19.55 223.82-23.35 226.47-27.15 231.32-27.15L231.32-27.15Q235.97-27.15 238.57-23.78 241.17-20.4 241.17-13.85L241.17-13.85ZM235.17-15.3L235.17-15.65Q235.17-19.4 234.27-21.13 233.37-22.85 231.37-22.85L231.37-22.85Q229.52-22.85 228.55-21.18 227.57-19.5 227.37-15.3L227.37-15.3 235.17-15.3ZM251.07 0.75Q248.37 0.75 246.8-0.93 245.22-2.6 245.22-5.4L245.22-5.4 245.22-37.05 251.37-37.7 251.37-5.65Q251.37-5 251.67-4.6 251.97-4.2 252.57-4.2L252.57-4.2Q252.92-4.2 253.25-4.3 253.57-4.4 253.67-4.4L253.67-4.4 254.87-0.2Q253.17 0.75 251.07 0.75L251.07 0.75ZM257.92-26.45L264.07-26.45 264.07 0 257.92 0 257.92-26.45ZM260.97-39.65Q262.62-39.65 263.64-38.6 264.67-37.55 264.67-35.9L264.67-35.9Q264.67-34.3 263.64-33.25 262.62-32.2 260.97-32.2L260.97-32.2Q259.32-32.2 258.29-33.25 257.27-34.3 257.27-35.9L257.27-35.9Q257.27-37.55 258.29-38.6 259.32-39.65 260.97-39.65L260.97-39.65ZM279.27-27.15Q281.42-27.15 283.17-26.43 284.92-25.7 286.52-24.15L286.52-24.15 283.87-20.65Q282.77-21.55 281.79-21.98 280.82-22.4 279.67-22.4L279.67-22.4Q277.42-22.4 276.27-20.28 275.12-18.15 275.12-13.1L275.12-13.1Q275.12-8.2 276.29-6.2 277.47-4.2 279.67-4.2L279.67-4.2Q280.77-4.2 281.67-4.6 282.57-5 283.77-5.85L283.77-5.85 286.52-2.3Q283.32 0.75 279.37 0.75L279.37 0.75Q274.27 0.75 271.44-2.73 268.62-6.2 268.62-13L268.62-13Q268.62-17.4 269.92-20.6 271.22-23.8 273.64-25.48 276.07-27.15 279.27-27.15L279.27-27.15ZM289.56-26.45L295.71-26.45 295.71 0 289.56 0 289.56-26.45ZM292.61-39.65Q294.26-39.65 295.29-38.6 296.31-37.55 296.31-35.9L296.31-35.9Q296.31-34.3 295.29-33.25 294.26-32.2 292.61-32.2L292.61-32.2Q290.96-32.2 289.94-33.25 288.91-34.3 288.91-35.9L288.91-35.9Q288.91-37.55 289.94-38.6 290.96-39.65 292.61-39.65L292.61-39.65ZM310.81-27.15Q315.81-27.15 318.59-23.65 321.36-20.15 321.36-13.25L321.36-13.25Q321.36-6.65 318.56-2.95 315.76 0.75 310.81 0.75L310.81 0.75Q305.86 0.75 303.06-2.88 300.26-6.5 300.26-13.25L300.26-13.25Q300.26-19.95 303.06-23.55 305.86-27.15 310.81-27.15L310.81-27.15ZM310.81-22.5Q308.66-22.5 307.66-20.38 306.66-18.25 306.66-13.25L306.66-13.25Q306.66-8.2 307.66-6.08 308.66-3.95 310.81-3.95L310.81-3.95Q312.96-3.95 313.96-6.08 314.96-8.2 314.96-13.25L314.96-13.25Q314.96-18.3 313.96-20.4 312.96-22.5 310.81-22.5L310.81-22.5ZM344.06-26.45L344.06 0 338.71 0 338.41-3.35Q337.16-1.3 335.61-0.28 334.06 0.75 332.01 0.75L332.01 0.75Q329.11 0.75 327.43-1.3 325.76-3.35 325.76-6.65L325.76-6.65 325.76-26.45 331.91-26.45 331.91-7Q331.91-3.9 334.01-3.9L334.01-3.9Q335.21-3.9 336.16-4.83 337.11-5.75 337.91-7.45L337.91-7.45 337.91-26.45 344.06-26.45ZM357.11-27.15Q361.81-27.15 365.06-24.05L365.06-24.05 362.71-20.7Q361.31-21.7 360.06-22.2 358.81-22.7 357.51-22.7L357.51-22.7Q356.06-22.7 355.23-21.93 354.41-21.15 354.41-19.8L354.41-19.8Q354.41-18.45 355.33-17.63 356.26-16.8 359.06-15.7L359.06-15.7Q362.51-14.35 364.16-12.5 365.81-10.65 365.81-7.55L365.81-7.55Q365.81-3.7 363.11-1.48 360.41 0.75 356.26 0.75L356.26 0.75Q353.56 0.75 351.28-0.23 349.01-1.2 347.31-2.95L347.31-2.95 350.31-6.25Q353.11-3.8 356.01-3.8L356.01-3.8Q357.66-3.8 358.61-4.67 359.56-5.55 359.56-7.1L359.56-7.1Q359.56-8.25 359.16-8.97 358.76-9.7 357.76-10.33 356.76-10.95 354.76-11.7L354.76-11.7Q351.31-13.05 349.83-14.85 348.36-16.65 348.36-19.45L348.36-19.45Q348.36-22.8 350.73-24.98 353.11-27.15 357.11-27.15L357.11-27.15ZM389.2-33.05Q387.8-33.05 387.13-32.3 386.45-31.55 386.45-30L386.45-30 386.45-26.45 391.5-26.45 390.8-22 386.45-22 386.45 0 380.3 0 380.3-22 377-22 377-26.45 380.3-26.45 380.3-29.8Q380.3-33.4 382.4-35.55 384.5-37.7 388.4-37.7L388.4-37.7Q391.45-37.7 394.3-36.2L394.3-36.2 392.6-32.2Q390.85-33.05 389.2-33.05L389.2-33.05ZM403.7-27.15Q408.7-27.15 411.47-23.65 414.25-20.15 414.25-13.25L414.25-13.25Q414.25-6.65 411.45-2.95 408.65 0.75 403.7 0.75L403.7 0.75Q398.75 0.75 395.95-2.88 393.15-6.5 393.15-13.25L393.15-13.25Q393.15-19.95 395.95-23.55 398.75-27.15 403.7-27.15L403.7-27.15ZM403.7-22.5Q401.55-22.5 400.55-20.38 399.55-18.25 399.55-13.25L399.55-13.25Q399.55-8.2 400.55-6.08 401.55-3.95 403.7-3.95L403.7-3.95Q405.85-3.95 406.85-6.08 407.85-8.2 407.85-13.25L407.85-13.25Q407.85-18.3 406.85-20.4 405.85-22.5 403.7-22.5L403.7-22.5ZM428.2-27.15Q433.2-27.15 435.97-23.65 438.75-20.15 438.75-13.25L438.75-13.25Q438.75-6.65 435.95-2.95 433.15 0.75 428.2 0.75L428.2 0.75Q423.25 0.75 420.45-2.88 417.65-6.5 417.65-13.25L417.65-13.25Q417.65-19.95 420.45-23.55 423.25-27.15 428.2-27.15L428.2-27.15ZM428.2-22.5Q426.05-22.5 425.05-20.38 424.05-18.25 424.05-13.25L424.05-13.25Q424.05-8.2 425.05-6.08 426.05-3.95 428.2-3.95L428.2-3.95Q430.35-3.95 431.35-6.08 432.35-8.2 432.35-13.25L432.35-13.25Q432.35-18.3 431.35-20.4 430.35-22.5 428.2-22.5L428.2-22.5ZM456.24-37.7L462.39-37.05 462.39 0 456.94 0 456.64-3.05Q454.29 0.75 450.59 0.75L450.59 0.75Q446.49 0.75 444.32-2.93 442.14-6.6 442.14-13.2L442.14-13.2Q442.14-17.4 443.27-20.58 444.39-23.75 446.39-25.45 448.39-27.15 450.99-27.15L450.99-27.15Q454.19-27.15 456.24-24.5L456.24-24.5 456.24-37.7ZM452.34-3.9Q453.49-3.9 454.42-4.7 455.34-5.5 456.24-7L456.24-7 456.24-19.85Q454.64-22.55 452.59-22.55L452.59-22.55Q448.54-22.55 448.54-13.25L448.54-13.25Q448.54-8.2 449.54-6.05 450.54-3.9 452.34-3.9L452.34-3.9Z" opacity="1" transform="matrix(1,0,0,1,0,0)" fill="#561f01" class="slogan-text-1" data-fill-palette-color="quaternary" id="text-1"></path></svg></g></svg></g></svg></g></svg></g><g transform="matrix(1,0,0,1,41.22409212874984,0)"><svg viewBox="0 0 109.55181574250032 108.41296877926028" height="108.41296877926028" width="109.55181574250032"><g><svg xmlns="http://www.w3.org/2000/svg" xmlns:xlink="http://www.w3.org/1999/xlink" version="1.1" x="0" y="0" viewBox="1.2383081404552094 2.2319939101455657 97.41569185954481 96.40300608985444" enable-background="new 0 0 100 100" xml:space="preserve" height="108.41296877926028" width="109.55181574250032" class="icon-icon-0" data-fill-palette-color="quaternary" id="icon-0"><g fill="#561f01" data-fill-palette-color="quaternary"><path d="M16.923 6.627c0 2.432 1.969 4.399 4.396 4.399h3.975l-20.901 7.37c-2.401 0.846-3.659 3.482-2.824 5.887 0.854 2.408 3.488 3.667 5.895 2.823l22.328-7.875L3.538 36.284c-2.338 1.524-3.001 4.655-1.489 7 1.527 2.341 4.658 3.005 7.002 1.49l20.888-13.576 8.832-15.785c0.48-0.851 1.547-1.152 2.402-0.68 0.568 0.326 0.896 0.924 0.896 1.539 0 0.287-0.071 0.583-0.222 0.857l-4.973 8.92c-1.718 2.884-4.464 9.138-3.489 14.922 0.817 4.801 3.272 9.161 7.062 12.234 2.144 1.745 5.294 1.411 7.035-0.732 1.737-2.144 1.412-5.293-0.734-7.032-1.868-1.523-3.104-3.664-3.485-6.041-0.408-2.577 0.205-5.144 1.739-7.256 1.524-2.103 3.785-3.499 6.355-3.908 5.306-0.846 10.317 2.784 11.165 8.088 0.855 5.285-2.784 10.33-8.096 11.172-2.724 0.44-4.556 3.015-4.146 5.729 0.432 2.725 2.995 4.582 5.728 4.147 6.307-0.893 11.525-5.035 14.177-9.259l14.311-19.495h14.158V2.232H21.319C18.892 2.228 16.923 4.195 16.923 6.627z" fill="#561f01" data-fill-palette-color="quaternary"></path></g><path d="M47.898 98.635c-1.123 0-2.023-0.898-2.023-2.022 0-1.122 0.9-2.023 2.023-2.023 1.121 0 2.021 0.901 2.021 2.023C49.919 97.736 49.019 98.635 47.898 98.635L47.898 98.635z" fill="#561f01" data-fill-palette-color="quaternary"></path><path d="M47.898 80.492c-1.123 0-2.023-0.902-2.023-2.022 0-1.124 0.9-2.022 2.023-2.022 1.121 0 2.021 0.898 2.021 2.022C49.919 79.59 49.019 80.492 47.898 80.492L47.898 80.492z" fill="#561f01" data-fill-palette-color="quaternary"></path><path d="M47.898 73.872c-1.123 0-2.023-0.902-2.023-2.022s0.9-2.022 2.023-2.022c1.121 0 2.021 0.902 2.021 2.022S49.019 73.872 47.898 73.872L47.898 73.872z" fill="#561f01" data-fill-palette-color="quaternary"></path><path d="M47.898 87.082c-1.123 0-2.023-0.898-2.023-2.022 0-1.12 0.9-2.022 2.023-2.022 1.121 0 2.021 0.902 2.021 2.022C49.919 86.184 49.019 87.082 47.898 87.082L47.898 87.082z" fill="#561f01" data-fill-palette-color="quaternary"></path><path d="M47.898 67.248c-1.123 0-2.023-0.895-2.023-2.019 0-1.12 0.9-2.022 2.023-2.022 1.121 0 2.021 0.902 2.021 2.022C49.919 66.354 49.019 67.248 47.898 67.248L47.898 67.248z" fill="#561f01" data-fill-palette-color="quaternary"></path><path d="M53.414 77.274c-1.121 0-2.023-0.899-2.023-2.023s0.902-2.022 2.023-2.022 2.021 0.898 2.021 2.022S54.535 77.274 53.414 77.274L53.414 77.274z" fill="#561f01" data-fill-palette-color="quaternary"></path><path d="M53.414 70.654c-1.121 0-2.023-0.899-2.023-2.023 0-1.12 0.902-2.022 2.023-2.022s2.021 0.902 2.021 2.022C55.436 69.755 54.535 70.654 53.414 70.654L53.414 70.654z" fill="#561f01" data-fill-palette-color="quaternary"></path><path d="M53.414 64.034c-1.121 0-2.023-0.899-2.023-2.023 0-1.12 0.902-2.022 2.023-2.022s2.021 0.902 2.021 2.022C55.436 63.135 54.535 64.034 53.414 64.034L53.414 64.034z" fill="#561f01" data-fill-palette-color="quaternary"></path><path d="M47.898 60.632c-1.123 0-2.023-0.902-2.023-2.022 0-1.123 0.9-2.021 2.023-2.021 1.121 0 2.021 0.898 2.021 2.021C49.919 59.729 49.019 60.632 47.898 60.632L47.898 60.632z" fill="#561f01" data-fill-palette-color="quaternary"></path></svg></g></svg></g><g></g></svg></g></svg></g></svg></g></svg></g><defs></defs></svg><rect width="320" height="360" fill="none" stroke="none" visibility="hidden"></rect></g></svg></g></svg>